<?xml version="1.0" encoding="UTF-8"?>
<svg width="14px" height="12px" viewBox="0 0 14 12" version="1.1" xmlns="http://www.w3.org/2000/svg" xmlns:xlink="http://www.w3.org/1999/xlink">
    <!-- Generator: Sketch 59.1 (86144) - https://sketch.com -->
    <title>Icon/UI/Arrow/Small/Highlight</title>
    <desc>Created with Sketch.</desc>
    <g id="Icon/UI/Arrow/Small/Highlight" stroke="none" stroke-width="1" fill="none" fill-rule="evenodd">
        <path d="M7.46966991,0.469669914 C7.76256313,0.176776695 8.23743687,0.176776695 8.53033009,0.469669914 L8.53033009,0.469669914 L13.5303301,5.46966991 C13.5549299,5.49426976 13.5778288,5.52057056 13.5988352,5.54838075 C13.6068243,5.55887091 13.6143147,5.56933877 13.6215034,5.57994996 C13.6325387,5.59634194 13.643187,5.61349194 13.653145,5.63108416 C13.6612981,5.64537558 13.6689416,5.66000914 13.6760696,5.67482849 C13.684555,5.69248608 13.6925505,5.71090579 13.6998114,5.72969108 C13.7039715,5.74054351 13.707697,5.75090869 13.7111871,5.76133534 C13.7184207,5.78271655 13.7248291,5.8051728 13.730192,5.82803188 C13.7329853,5.8402739 13.7354242,5.85196718 13.7375819,5.863702 C13.7457051,5.90731196 13.75,5.95315442 13.75,6 L13.7464221,5.92660639 C13.7478527,5.94124091 13.7488542,5.95590946 13.7494268,5.97059162 L13.75,6 C13.75,6.00981388 13.7498115,6.01958374 13.7494379,6.02930615 C13.7488867,6.04376219 13.7478395,6.05909812 13.7463234,6.07439636 C13.7441946,6.09611633 13.7412529,6.11678009 13.7374876,6.13715509 C13.7354242,6.14803282 13.7329853,6.1597261 13.7302653,6.17136702 C13.7248291,6.1948272 13.7184207,6.21728345 13.7110197,6.23928365 C13.707697,6.24909131 13.7039715,6.25945649 13.7000107,6.26975191 C13.6925505,6.28909421 13.684555,6.30751392 13.6758602,6.32553283 C13.6689416,6.33999086 13.6612981,6.35462442 13.6531392,6.36904532 C13.643187,6.38650806 13.6325387,6.40365806 13.6212371,6.42032907 C13.5951622,6.45893181 13.5647711,6.49588908 13.5303301,6.53033009 L13.5988352,6.45161925 C13.5971451,6.45385686 13.5954427,6.45608469 13.5937281,6.45830264 L13.5303301,6.53033009 L8.53033009,11.5303301 C8.23743687,11.8232233 7.76256313,11.8232233 7.46966991,11.5303301 C7.1767767,11.2374369 7.1767767,10.7625631 7.46966991,10.4696699 L7.46966991,10.4696699 L11.189,6.749 L1.5,6.75 C1.12030423,6.75 0.806509039,6.46784612 0.756846616,6.10177056 L0.75,6 C0.75,5.58578644 1.08578644,5.25 1.5,5.25 L1.5,5.25 L11.189,5.249 L7.46966991,1.53033009 C7.20340335,1.26406352 7.1791973,0.847399841 7.39705176,0.553788347 Z" id="Combined-Shape" fill="#F05C4C"></path>
    </g>
</svg>